<svg width="1279" height="106" viewBox="0 0 1279 106" fill="none" xmlns="http://www.w3.org/2000/svg">
<path d="M-1 25.34C-1 43.4962 -1 53.6395 -1 72.5C8.82239 79.3554 17.8191 84.1552 40.3134 79.5975C54.6085 73.3937 56.7825 67.655 73.7823 66.3391C81.2871 65.757 89.474 65.7535 95.8815 67.7514C102.38 69.7769 111.979 76.3665 115.953 79.5975C140.718 99.7625 196.242 103.149 235.433 89.5353C262.575 80.1073 282.458 62.4535 315.734 62.55C342.693 62.6292 362.183 74.7061 385.991 80.9031C411.593 87.565 444.369 87.0483 469.042 79.5975C488.469 73.7313 504.097 63.7625 526.703 62.2262C545.609 60.9448 564.015 66.16 577.702 72.6772C591.389 79.1945 602.066 87.131 616.175 93.4278C644.14 105.911 689.239 110.493 720.51 100.062C741.076 93.2004 752.174 81.5265 767.388 71.885C782.601 62.24 807.718 53.897 831.097 58.0651C843.131 60.2111 851.881 65.2299 860.631 69.8113C883.525 81.7952 915.126 92.701 947.965 89.4527C994.428 84.8575 1021.21 59.5976 1068.55 60.7585C1105.28 61.661 1126.26 75.7878 1157.65 85.1675C1181.47 92.2842 1210.52 94.9976 1235.01 88.7204C1259.5 82.4433 1260.5 80.2626 1279 66.34C1279 58.4395 1279 35.6074 1279 15.34C1258.93 8.45759 1219.99 16.1988 1195.65 17.5526C1171.31 18.9063 1147.09 21.8894 1122.64 21.0937C1102.79 20.4495 1083.68 17.339 1064.56 14.6487C953.55 -0.95895 834.586 -2.78806 721.804 9.38877C688.965 12.9333 655.802 17.6766 622.322 16.1093C593.408 14.7521 566.357 8.76873 538.287 5.11052C505.18 0.797818 470.322 -0.266577 436.379 2C373.289 6.21625 313.729 21.7275 250.062 21.259C201.693 20.9042 154.33 11.2558 106.2 13.6222C51.7958 16.2953 37.6418 6.39445 -1 25.34Z" fill="#FCF9F5"/>
</svg>
