<svg width="1280" height="131" viewBox="0 0 1280 131" fill="none" xmlns="http://www.w3.org/2000/svg">
<path d="M1280 25.2689C1280 47.921 1280 66.1758 1280 89.7065C1270.18 98.2594 1259.69 103.946 1237.2 98.2594C1222.91 90.5194 1220.74 83.3596 1203.75 81.7179C1196.24 80.9916 1184.57 81.3075 1175.08 85C1168.59 87.527 1151.08 100.969 1147.1 105C1122.35 130.158 1081.33 127.642 1042.16 110.658C1015.03 98.8955 995.152 76.8702 961.89 76.9906C934.941 77.0894 915.459 92.1568 891.66 99.8882C866.068 108.2 833.305 107.555 808.641 98.2594C789.223 90.9406 773.6 78.5033 751.004 76.5866C732.105 74.9879 713.706 81.4945 700.024 89.6255C686.342 97.7566 675.669 107.658 661.566 115.514C633.612 131.089 588.531 136.805 557.272 123.791C536.714 115.231 525.62 100.666 510.412 88.6371C495.205 76.6038 470.098 66.195 446.728 71.3951C434.698 74.0725 425.952 80.3341 417.206 86.0499C394.321 101.001 362.732 114.608 329.905 110.555C283.461 104.822 256.689 73.3071 209.365 74.7554C172.651 75.8814 151.684 93.5063 120.306 105.209C96.4926 114.088 67.4565 117.473 42.9723 109.641C18.4881 101.81 18.4881 101.454 2.09627e-05 84.0837C0.0001259 74.227 -5.97036e-05 59.7104 2.09627e-05 34.4244C20.0657 25.8378 57.9854 19.162 82.3187 20.8509C106.652 22.5399 130.859 26.2616 155.298 25.2689C175.138 24.4652 194.248 20.5845 213.357 17.2281C324.323 -2.2444 443.241 -4.52643 555.978 10.6656C588.805 15.0878 621.955 21.0057 655.421 19.0502C684.324 17.357 711.364 9.89204 739.424 5.32798C772.518 -0.0526214 807.362 -1.38058 841.292 1.44724C904.358 6.70751 963.894 26.0596 1027.54 25.4752C1075.89 25.0325 1123.23 12.9949 1171.34 15.9474C1225.72 19.2823 1241.37 1.63204 1280 25.2689Z" fill="#E9592B"/>
</svg>
