<svg width="40" height="40" viewBox="0 0 40 40" fill="none" xmlns="http://www.w3.org/2000/svg">
<path id="Vector" d="M10.0333 12.315C10.6983 11.84 11.45 11.62 12.1867 11.62C13.76 11.62 15.2733 12.62 15.77 14.285C15.1333 13.795 14.3867 13.5567 13.635 13.5567C12.8717 13.5567 12.1033 13.8017 11.4333 14.28C10.1017 15.23 9.51167 16.8483 10.025 18.3817C7.955 16.8983 7.94667 13.8033 10.0333 12.315ZM16.2683 33.5983C17.925 34.155 23.0533 35.575 28.9933 40L40 32.15C37.145 28.1467 37.9317 25.3467 35.095 21.37C33.1583 18.6567 32.05 18.6133 30.0333 18.9833L31.0317 20.3833C31.6333 21.2283 30.3567 22.1333 29.7583 21.29L28.8683 20.04C28.1433 19.025 26.7367 19.6583 25.4467 19.955L26.6583 21.6533C27.2583 22.495 25.9867 23.405 25.385 22.56L24.3367 21.09C23.5933 20.0467 22.14 20.7433 20.845 21.0733L22.1267 22.87C22.7317 23.7167 21.4517 24.6183 20.8533 23.7767L15.6567 16.5C14.0433 14.2367 10.51 16.6383 12.18 18.9817L19.855 29.745C19.0317 29.44 17.5833 29.1633 16.6383 29.1633C13.715 29.1633 12.59 32.3633 16.2683 33.5983ZM10.7917 30H3.33333V6.66667H20V17.8133L23.3333 17.0283V3.33333C23.3333 1.49333 21.8417 0 20 0H3.33333C1.49167 0 3.5665e-07 1.49333 3.5665e-07 3.33333V34.4633C-0.00166631 38.1517 5.83833 40 11.675 40C14.695 40 17.7067 39.5017 19.915 38.51C16.38 36.9333 9.285 35.8833 10.7917 30Z" fill="#FFCC3C"/>
</svg>
