<svg width="40" height="40" viewBox="0 0 40 40" fill="none" xmlns="http://www.w3.org/2000/svg">
<path id="Vector" d="M26.5167 22.2333L30.91 15.5233L30.1533 14.8467L24.0317 20.0117C22.9067 19.7817 21.695 20.125 20.875 21.0417C19.6483 22.4133 19.7667 24.5217 21.14 25.7483C22.5133 26.975 24.62 26.8567 25.8467 25.4833C26.6667 24.5667 26.8717 23.325 26.5167 22.2333ZM20 4.49V0H26.6667V4.49C24.2683 4.085 22.3467 4.09333 20 4.49ZM34.7517 7.93L37.0967 5.585L39.4533 7.94167L37.2517 10.1433C36.4817 9.33667 35.645 8.59833 34.7517 7.93ZM3.33333 15H16.6667V18.3333H3.33333V15ZM0 21.6667H13.3333V25H0V21.6667ZM5 28.3333H16.6667V31.6667H5V28.3333ZM40 23.3333C40 32.5383 32.5383 40 23.3333 40C18.6833 40 14.5 38.075 11.4817 35H16.9483C18.845 36.0517 21.0133 36.6667 23.3333 36.6667C30.685 36.6667 36.6667 30.685 36.6667 23.3333C36.6667 15.9817 30.685 10 23.3333 10C21.0133 10 18.845 10.615 16.9483 11.6667H11.4817C14.5 8.59167 18.6833 6.66667 23.3333 6.66667C32.5383 6.66667 40 14.1283 40 23.3333Z" fill="#FFCC3C"/>
</svg>
